<mxfile host="app.diagrams.net" modified="2020-09-22T20:17:02.335Z" agent="5.0 (Windows NT 10.0; Win64; x64) AppleWebKit/537.36 (KHTML, like Gecko) Chrome/85.0.4183.102 Safari/537.36" etag="K7PJAUVtCwXrMThetO_5" version="13.7.4" type="github">
  <diagram id="C5RBs43oDa-KdzZeNtuy" name="Covid-Tracker 19">
    <mxGraphModel dx="724" dy="559" grid="1" gridSize="10" guides="1" tooltips="1" connect="1" arrows="1" fold="1" page="1" pageScale="1" pageWidth="827" pageHeight="1169" math="0" shadow="0">
      <root>
        <mxCell id="WIyWlLk6GJQsqaUBKTNV-0" />
        <mxCell id="WIyWlLk6GJQsqaUBKTNV-1" parent="WIyWlLk6GJQsqaUBKTNV-0" />
        <mxCell id="B59ZX9DxTGBD0BoHQrk_-0" value="" style="rounded=1;whiteSpace=wrap;html=1;fillColor=#f5f5f5;strokeColor=#666666;fontColor=#333333;" vertex="1" parent="WIyWlLk6GJQsqaUBKTNV-1">
          <mxGeometry x="50" y="110" width="750" height="530" as="geometry" />
        </mxCell>
        <mxCell id="B59ZX9DxTGBD0BoHQrk_-1" value="&lt;font style=&quot;font-size: 22px&quot;&gt;COVID 19 TRACKER&lt;/font&gt;" style="text;html=1;strokeColor=none;fillColor=none;align=center;verticalAlign=middle;whiteSpace=wrap;rounded=0;" vertex="1" parent="WIyWlLk6GJQsqaUBKTNV-1">
          <mxGeometry x="100" y="150" width="220" height="20" as="geometry" />
        </mxCell>
        <mxCell id="B59ZX9DxTGBD0BoHQrk_-2" value="Worldwide" style="rounded=1;whiteSpace=wrap;html=1;" vertex="1" parent="WIyWlLk6GJQsqaUBKTNV-1">
          <mxGeometry x="360" y="150" width="160" height="30" as="geometry" />
        </mxCell>
        <mxCell id="B59ZX9DxTGBD0BoHQrk_-3" value="" style="rounded=1;whiteSpace=wrap;html=1;align=left;" vertex="1" parent="WIyWlLk6GJQsqaUBKTNV-1">
          <mxGeometry x="100" y="200" width="120" height="60" as="geometry" />
        </mxCell>
        <mxCell id="B59ZX9DxTGBD0BoHQrk_-5" value="&lt;font style=&quot;font-size: 10px&quot;&gt;Coronavirus cases&lt;/font&gt;" style="text;html=1;strokeColor=none;fillColor=none;align=left;verticalAlign=middle;whiteSpace=wrap;rounded=0;" vertex="1" parent="WIyWlLk6GJQsqaUBKTNV-1">
          <mxGeometry x="100" y="200" width="120" height="20" as="geometry" />
        </mxCell>
        <mxCell id="B59ZX9DxTGBD0BoHQrk_-6" value="&lt;font style=&quot;font-size: 10px&quot;&gt;+ 2,000&lt;/font&gt;" style="text;html=1;strokeColor=none;fillColor=none;align=left;verticalAlign=middle;whiteSpace=wrap;rounded=0;" vertex="1" parent="WIyWlLk6GJQsqaUBKTNV-1">
          <mxGeometry x="100" y="220" width="120" height="20" as="geometry" />
        </mxCell>
        <mxCell id="B59ZX9DxTGBD0BoHQrk_-7" value="&lt;font style=&quot;font-size: 10px&quot;&gt;1.2 M Total&lt;/font&gt;" style="text;html=1;strokeColor=none;fillColor=none;align=left;verticalAlign=middle;whiteSpace=wrap;rounded=0;" vertex="1" parent="WIyWlLk6GJQsqaUBKTNV-1">
          <mxGeometry x="100" y="240" width="110" height="20" as="geometry" />
        </mxCell>
        <mxCell id="B59ZX9DxTGBD0BoHQrk_-22" value="&lt;font style=&quot;font-size: 10px&quot;&gt;1.2 M Total&lt;/font&gt;" style="text;html=1;strokeColor=none;fillColor=none;align=left;verticalAlign=middle;whiteSpace=wrap;rounded=0;" vertex="1" parent="WIyWlLk6GJQsqaUBKTNV-1">
          <mxGeometry x="240" y="240" width="110" height="20" as="geometry" />
        </mxCell>
        <mxCell id="B59ZX9DxTGBD0BoHQrk_-23" value="" style="rounded=1;whiteSpace=wrap;html=1;align=left;" vertex="1" parent="WIyWlLk6GJQsqaUBKTNV-1">
          <mxGeometry x="240" y="200" width="120" height="60" as="geometry" />
        </mxCell>
        <mxCell id="B59ZX9DxTGBD0BoHQrk_-24" value="&lt;font style=&quot;font-size: 10px&quot;&gt;+ 2,000&lt;/font&gt;" style="text;html=1;strokeColor=none;fillColor=none;align=left;verticalAlign=middle;whiteSpace=wrap;rounded=0;" vertex="1" parent="WIyWlLk6GJQsqaUBKTNV-1">
          <mxGeometry x="240" y="220" width="120" height="20" as="geometry" />
        </mxCell>
        <mxCell id="B59ZX9DxTGBD0BoHQrk_-25" value="&lt;font style=&quot;font-size: 10px&quot;&gt;Coronavirus cases&lt;/font&gt;" style="text;html=1;strokeColor=none;fillColor=none;align=left;verticalAlign=middle;whiteSpace=wrap;rounded=0;" vertex="1" parent="WIyWlLk6GJQsqaUBKTNV-1">
          <mxGeometry x="240" y="200" width="120" height="20" as="geometry" />
        </mxCell>
        <mxCell id="B59ZX9DxTGBD0BoHQrk_-26" value="&lt;font style=&quot;font-size: 10px&quot;&gt;1.2 M Total&lt;/font&gt;" style="text;html=1;strokeColor=none;fillColor=none;align=left;verticalAlign=middle;whiteSpace=wrap;rounded=0;" vertex="1" parent="WIyWlLk6GJQsqaUBKTNV-1">
          <mxGeometry x="400" y="240" width="110" height="20" as="geometry" />
        </mxCell>
        <mxCell id="B59ZX9DxTGBD0BoHQrk_-27" value="" style="rounded=1;whiteSpace=wrap;html=1;align=left;" vertex="1" parent="WIyWlLk6GJQsqaUBKTNV-1">
          <mxGeometry x="400" y="200" width="120" height="60" as="geometry" />
        </mxCell>
        <mxCell id="B59ZX9DxTGBD0BoHQrk_-28" value="&lt;font style=&quot;font-size: 10px&quot;&gt;+ 2,000&lt;/font&gt;" style="text;html=1;strokeColor=none;fillColor=none;align=left;verticalAlign=middle;whiteSpace=wrap;rounded=0;" vertex="1" parent="WIyWlLk6GJQsqaUBKTNV-1">
          <mxGeometry x="400" y="220" width="120" height="20" as="geometry" />
        </mxCell>
        <mxCell id="B59ZX9DxTGBD0BoHQrk_-29" value="&lt;font style=&quot;font-size: 10px&quot;&gt;Coronavirus cases&lt;/font&gt;" style="text;html=1;strokeColor=none;fillColor=none;align=left;verticalAlign=middle;whiteSpace=wrap;rounded=0;" vertex="1" parent="WIyWlLk6GJQsqaUBKTNV-1">
          <mxGeometry x="400" y="200" width="120" height="20" as="geometry" />
        </mxCell>
        <mxCell id="B59ZX9DxTGBD0BoHQrk_-30" value="&lt;font style=&quot;font-size: 10px&quot;&gt;1.2 M Total&lt;/font&gt;" style="text;html=1;strokeColor=none;fillColor=none;align=left;verticalAlign=middle;whiteSpace=wrap;rounded=0;" vertex="1" parent="WIyWlLk6GJQsqaUBKTNV-1">
          <mxGeometry x="240" y="240" width="110" height="20" as="geometry" />
        </mxCell>
        <mxCell id="B59ZX9DxTGBD0BoHQrk_-31" value="&lt;font style=&quot;font-size: 10px&quot;&gt;1.2 M Total&lt;/font&gt;" style="text;html=1;strokeColor=none;fillColor=none;align=left;verticalAlign=middle;whiteSpace=wrap;rounded=0;" vertex="1" parent="WIyWlLk6GJQsqaUBKTNV-1">
          <mxGeometry x="400" y="240" width="110" height="20" as="geometry" />
        </mxCell>
        <mxCell id="B59ZX9DxTGBD0BoHQrk_-32" value="" style="rounded=1;whiteSpace=wrap;html=1;" vertex="1" parent="WIyWlLk6GJQsqaUBKTNV-1">
          <mxGeometry x="100" y="280" width="420" height="300" as="geometry" />
        </mxCell>
        <mxCell id="B59ZX9DxTGBD0BoHQrk_-33" value="" style="shape=image;html=1;verticalAlign=top;verticalLabelPosition=bottom;labelBackgroundColor=#ffffff;imageAspect=0;aspect=fixed;image=https://cdn4.iconfinder.com/data/icons/small-n-flat/24/map-128.png" vertex="1" parent="WIyWlLk6GJQsqaUBKTNV-1">
          <mxGeometry x="240" y="350" width="128" height="128" as="geometry" />
        </mxCell>
        <mxCell id="B59ZX9DxTGBD0BoHQrk_-34" value="" style="rounded=1;whiteSpace=wrap;html=1;" vertex="1" parent="WIyWlLk6GJQsqaUBKTNV-1">
          <mxGeometry x="560" y="150" width="190" height="430" as="geometry" />
        </mxCell>
        <mxCell id="B59ZX9DxTGBD0BoHQrk_-35" value="Case By Country" style="text;html=1;strokeColor=none;fillColor=none;align=center;verticalAlign=middle;whiteSpace=wrap;rounded=0;" vertex="1" parent="WIyWlLk6GJQsqaUBKTNV-1">
          <mxGeometry x="580" y="160" width="110" height="20" as="geometry" />
        </mxCell>
        <mxCell id="B59ZX9DxTGBD0BoHQrk_-36" value="Worldwide New Cases" style="text;html=1;strokeColor=none;fillColor=none;align=center;verticalAlign=middle;whiteSpace=wrap;rounded=0;" vertex="1" parent="WIyWlLk6GJQsqaUBKTNV-1">
          <mxGeometry x="580" y="420" width="140" height="20" as="geometry" />
        </mxCell>
        <mxCell id="B59ZX9DxTGBD0BoHQrk_-37" value="" style="fillColor=#10739E;strokeColor=none;" vertex="1" parent="WIyWlLk6GJQsqaUBKTNV-1">
          <mxGeometry x="570" y="470" width="30" height="100" as="geometry" />
        </mxCell>
        <mxCell id="B59ZX9DxTGBD0BoHQrk_-38" value="" style="shape=mxgraph.arrows2.arrow;dy=0.4;dx=16;notch=0;direction=north;fillColor=#1699D3;strokeColor=none;" vertex="1" parent="B59ZX9DxTGBD0BoHQrk_-37">
          <mxGeometry x="3" y="30" width="24" height="70" as="geometry" />
        </mxCell>
        <mxCell id="B59ZX9DxTGBD0BoHQrk_-39" value="Label" style="text;html=1;align=center;verticalAlign=middle;whiteSpace=wrap;fontColor=#FFFFFF;fontSize=10;" vertex="1" parent="B59ZX9DxTGBD0BoHQrk_-37">
          <mxGeometry width="30" height="20" as="geometry" />
        </mxCell>
        <mxCell id="B59ZX9DxTGBD0BoHQrk_-40" value="" style="fillColor=#F2931E;strokeColor=none;" vertex="1" parent="WIyWlLk6GJQsqaUBKTNV-1">
          <mxGeometry x="605" y="450" width="30" height="120" as="geometry" />
        </mxCell>
        <mxCell id="B59ZX9DxTGBD0BoHQrk_-41" value="" style="shape=mxgraph.arrows2.arrow;dy=0.4;dx=16;notch=0;direction=south;fillColor=#F5AB50;strokeColor=none;" vertex="1" parent="B59ZX9DxTGBD0BoHQrk_-40">
          <mxGeometry x="3" width="24" height="80" as="geometry" />
        </mxCell>
        <mxCell id="B59ZX9DxTGBD0BoHQrk_-42" value="Label" style="text;html=1;align=center;verticalAlign=middle;whiteSpace=wrap;fontColor=#FFFFFF;fontSize=10;" vertex="1" parent="B59ZX9DxTGBD0BoHQrk_-40">
          <mxGeometry width="30" height="20" as="geometry" />
        </mxCell>
        <mxCell id="B59ZX9DxTGBD0BoHQrk_-43" value="" style="fillColor=#AE4132;strokeColor=none;" vertex="1" parent="WIyWlLk6GJQsqaUBKTNV-1">
          <mxGeometry x="640" y="440" width="30" height="130" as="geometry" />
        </mxCell>
        <mxCell id="B59ZX9DxTGBD0BoHQrk_-44" value="" style="shape=mxgraph.arrows2.arrow;dy=0.4;dx=16;notch=0;direction=north;fillColor=#E85642;strokeColor=none;" vertex="1" parent="B59ZX9DxTGBD0BoHQrk_-43">
          <mxGeometry x="3" y="80" width="24" height="50" as="geometry" />
        </mxCell>
        <mxCell id="B59ZX9DxTGBD0BoHQrk_-45" value="Label" style="text;html=1;align=center;verticalAlign=middle;whiteSpace=wrap;fontColor=#FFFFFF;fontSize=10;" vertex="1" parent="B59ZX9DxTGBD0BoHQrk_-43">
          <mxGeometry width="30" height="20" as="geometry" />
        </mxCell>
        <mxCell id="B59ZX9DxTGBD0BoHQrk_-46" value="" style="fillColor=#12AAB5;strokeColor=none;" vertex="1" parent="WIyWlLk6GJQsqaUBKTNV-1">
          <mxGeometry x="675" y="490" width="30" height="80" as="geometry" />
        </mxCell>
        <mxCell id="B59ZX9DxTGBD0BoHQrk_-47" value="" style="shape=mxgraph.arrows2.arrow;dy=0.4;dx=16;notch=0;direction=south;fillColor=#64BBE2;strokeColor=none;" vertex="1" parent="B59ZX9DxTGBD0BoHQrk_-46">
          <mxGeometry x="3" width="24" height="30" as="geometry" />
        </mxCell>
        <mxCell id="B59ZX9DxTGBD0BoHQrk_-48" value="Label" style="text;html=1;align=center;verticalAlign=middle;whiteSpace=wrap;fontColor=#FFFFFF;fontSize=10;" vertex="1" parent="B59ZX9DxTGBD0BoHQrk_-46">
          <mxGeometry width="30" height="20" as="geometry" />
        </mxCell>
        <mxCell id="B59ZX9DxTGBD0BoHQrk_-49" value="" style="fillColor=#23445D;strokeColor=none;" vertex="1" parent="WIyWlLk6GJQsqaUBKTNV-1">
          <mxGeometry x="710" y="500" width="30" height="70" as="geometry" />
        </mxCell>
        <mxCell id="B59ZX9DxTGBD0BoHQrk_-50" value="" style="shape=mxgraph.arrows2.arrow;dy=0.4;dx=16;notch=0;direction=north;fillColor=#2F5B7C;strokeColor=none;" vertex="1" parent="B59ZX9DxTGBD0BoHQrk_-49">
          <mxGeometry x="3" y="10" width="24" height="60" as="geometry" />
        </mxCell>
        <mxCell id="B59ZX9DxTGBD0BoHQrk_-51" value="Label" style="text;html=1;align=center;verticalAlign=middle;whiteSpace=wrap;fontColor=#FFFFFF;fontSize=10;" vertex="1" parent="B59ZX9DxTGBD0BoHQrk_-49">
          <mxGeometry width="30" height="20" as="geometry" />
        </mxCell>
        <mxCell id="B59ZX9DxTGBD0BoHQrk_-65" value="" style="shape=table;html=1;whiteSpace=wrap;startSize=0;container=1;collapsible=0;childLayout=tableLayout;columnLines=0;rowLines=0;" vertex="1" parent="WIyWlLk6GJQsqaUBKTNV-1">
          <mxGeometry x="565" y="200" width="175" height="220" as="geometry" />
        </mxCell>
        <mxCell id="B59ZX9DxTGBD0BoHQrk_-66" value="" style="shape=partialRectangle;html=1;whiteSpace=wrap;collapsible=0;dropTarget=0;pointerEvents=0;fillColor=none;top=0;left=0;bottom=0;right=0;points=[[0,0.5],[1,0.5]];portConstraint=eastwest;" vertex="1" parent="B59ZX9DxTGBD0BoHQrk_-65">
          <mxGeometry width="175" height="73" as="geometry" />
        </mxCell>
        <mxCell id="B59ZX9DxTGBD0BoHQrk_-67" value="Value 1" style="shape=partialRectangle;html=1;whiteSpace=wrap;connectable=0;fillColor=none;top=0;left=0;bottom=0;right=0;overflow=hidden;" vertex="1" parent="B59ZX9DxTGBD0BoHQrk_-66">
          <mxGeometry width="58" height="73" as="geometry" />
        </mxCell>
        <mxCell id="B59ZX9DxTGBD0BoHQrk_-68" value="Value 2" style="shape=partialRectangle;html=1;whiteSpace=wrap;connectable=0;fillColor=none;top=0;left=0;bottom=0;right=0;overflow=hidden;" vertex="1" parent="B59ZX9DxTGBD0BoHQrk_-66">
          <mxGeometry x="58" width="59" height="73" as="geometry" />
        </mxCell>
        <mxCell id="B59ZX9DxTGBD0BoHQrk_-69" value="Value 3" style="shape=partialRectangle;html=1;whiteSpace=wrap;connectable=0;fillColor=none;top=0;left=0;bottom=0;right=0;overflow=hidden;" vertex="1" parent="B59ZX9DxTGBD0BoHQrk_-66">
          <mxGeometry x="117" width="58" height="73" as="geometry" />
        </mxCell>
        <mxCell id="B59ZX9DxTGBD0BoHQrk_-70" value="" style="shape=partialRectangle;html=1;whiteSpace=wrap;collapsible=0;dropTarget=0;pointerEvents=0;fillColor=none;top=0;left=0;bottom=0;right=0;points=[[0,0.5],[1,0.5]];portConstraint=eastwest;" vertex="1" parent="B59ZX9DxTGBD0BoHQrk_-65">
          <mxGeometry y="73" width="175" height="74" as="geometry" />
        </mxCell>
        <mxCell id="B59ZX9DxTGBD0BoHQrk_-71" value="Value 4" style="shape=partialRectangle;html=1;whiteSpace=wrap;connectable=0;fillColor=none;top=0;left=0;bottom=0;right=0;overflow=hidden;" vertex="1" parent="B59ZX9DxTGBD0BoHQrk_-70">
          <mxGeometry width="58" height="74" as="geometry" />
        </mxCell>
        <mxCell id="B59ZX9DxTGBD0BoHQrk_-72" value="Value 5" style="shape=partialRectangle;html=1;whiteSpace=wrap;connectable=0;fillColor=none;top=0;left=0;bottom=0;right=0;overflow=hidden;" vertex="1" parent="B59ZX9DxTGBD0BoHQrk_-70">
          <mxGeometry x="58" width="59" height="74" as="geometry" />
        </mxCell>
        <mxCell id="B59ZX9DxTGBD0BoHQrk_-73" value="Value 6" style="shape=partialRectangle;html=1;whiteSpace=wrap;connectable=0;fillColor=none;top=0;left=0;bottom=0;right=0;overflow=hidden;" vertex="1" parent="B59ZX9DxTGBD0BoHQrk_-70">
          <mxGeometry x="117" width="58" height="74" as="geometry" />
        </mxCell>
        <mxCell id="B59ZX9DxTGBD0BoHQrk_-74" value="" style="shape=partialRectangle;html=1;whiteSpace=wrap;collapsible=0;dropTarget=0;pointerEvents=0;fillColor=none;top=0;left=0;bottom=0;right=0;points=[[0,0.5],[1,0.5]];portConstraint=eastwest;" vertex="1" parent="B59ZX9DxTGBD0BoHQrk_-65">
          <mxGeometry y="147" width="175" height="73" as="geometry" />
        </mxCell>
        <mxCell id="B59ZX9DxTGBD0BoHQrk_-75" value="Value 7" style="shape=partialRectangle;html=1;whiteSpace=wrap;connectable=0;fillColor=none;top=0;left=0;bottom=0;right=0;overflow=hidden;" vertex="1" parent="B59ZX9DxTGBD0BoHQrk_-74">
          <mxGeometry width="58" height="73" as="geometry" />
        </mxCell>
        <mxCell id="B59ZX9DxTGBD0BoHQrk_-76" value="Value 8" style="shape=partialRectangle;html=1;whiteSpace=wrap;connectable=0;fillColor=none;top=0;left=0;bottom=0;right=0;overflow=hidden;" vertex="1" parent="B59ZX9DxTGBD0BoHQrk_-74">
          <mxGeometry x="58" width="59" height="73" as="geometry" />
        </mxCell>
        <mxCell id="B59ZX9DxTGBD0BoHQrk_-77" value="Value 9" style="shape=partialRectangle;html=1;whiteSpace=wrap;connectable=0;fillColor=none;top=0;left=0;bottom=0;right=0;overflow=hidden;" vertex="1" parent="B59ZX9DxTGBD0BoHQrk_-74">
          <mxGeometry x="117" width="58" height="73" as="geometry" />
        </mxCell>
      </root>
    </mxGraphModel>
  </diagram>
</mxfile>
